HIERARCHY
ROOT ui
{
	 OFFSET 0 0 0
	 CHANNELS 3 XPosition YPosition Z Position
	 EndSite
	 {
	 OFFSET 0 -1 0
	 }
}
ROOT li
{
	 OFFSET 0 0 0
	 CHANNELS 3 XPosition YPosition Z Position
	 EndSite
	 {
	 OFFSET 0 -1 0
	 }
}
ROOT ul
{
	 OFFSET 0 0 0
	 CHANNELS 3 XPosition YPosition Z Position
	 EndSite
	 {
	 OFFSET 0 -1 0
	 }
}
ROOT ll
{
	 OFFSET 0 0 0
	 CHANNELS 3 XPosition YPosition Z Position
	 EndSite
	 {
	 OFFSET 0 -1 0
	 }
}
ROOT tt
{
	 OFFSET 0 0 0
	 CHANNELS 3 XPosition YPosition Z Position
	 EndSite
	 {
	 OFFSET 0 -1 0
	 }
}
ROOT tb
{
	 OFFSET 0 0 0
	 CHANNELS 3 XPosition YPosition Z Position
	 EndSite
	 {
	 OFFSET 0 -1 0
	 }
}
ROOT td
{
	 OFFSET 0 0 0
	 CHANNELS 3 XPosition YPosition Z Position
	 EndSite
	 {
	 OFFSET 0 -1 0
	 }
}
ROOT v
{
	 OFFSET 0 0 0
	 CHANNELS 3 XPosition YPosition Z Position
	 EndSite
	 {
	 OFFSET 0 -1 0
	 }
}
ROOT bn
{
	 OFFSET 0 0 0
	 CHANNELS 3 XPosition YPosition Z Position
	 EndSite
	 {
	 OFFSET 0 -1 0
	 }
}
MOTION
Frames: 30
Frame Time: 0.002
0.028532323837280275	-0.008263458251953125	0		0.5224985961914063	-2.419369140625	0		-0.9449102783203125	0.3511617431640625	0		-0.4492494201660156	-2.90207568359375	0		1.69851318359375	-0.4657061767578125	0		3.12183935546875	0.23989340209960938	0		4.4935439453125	0.40024053955078126	0		5.97586767578125	0.5039936828613282	0		-0.272392822265625	5.94823486328125	0		
0.019528139114379884	6.08240008354187E-4	0		0.5340673828125	-2.425866943359375	0		-1.01395849609375	0.3560619201660156	0		-0.4778399353027344	-2.915862548828125	0		1.6899178466796876	-0.4919749755859375	0		3.143755126953125	0.24203468322753907	0		4.4916337890625	0.4126556396484375	0		5.9764765625	0.50269677734375	0		-0.08751660919189454	5.98206201171875	0		
0.04034885025024414	0.0010296560525894164	0		0.5455902099609375	-2.43333740234375	0		-0.9399918212890624	0.3637101135253906	0		-0.4344674682617187	-2.93077099609375	0		1.693530517578125	-0.5023990478515625	0		3.095824951171875	0.257333984375	0		4.50161279296875	0.42093548583984375	0		5.96923193359375	0.5052760009765624	0		-0.08923844146728516	5.984857421875	0		
0.024145387649536134	0.003066910982131958	0		0.5332620239257813	-2.42939697265625	0		-0.94918896484375	0.36469833374023436	0		-0.4430682373046875	-2.94182958984375	0		1.698923583984375	-0.5238171997070312	0		3.082413330078125	0.24512889099121093	0		4.4975146484375	0.42749365234375	0		5.9597001953125	0.4907554931640625	0		-0.23560162353515626	5.95398876953125	0		
0.02485551643371582	0.0028595690727233887	0		0.5655689697265625	-2.446146240234375	0		-0.952521484375	0.3606125793457031	0		-0.4197579040527344	-2.95637744140625	0		1.6863636474609376	-0.5389114379882812	0		3.083944580078125	0.23272859191894532	0		4.50437744140625	0.4349278564453125	0		5.95359375	0.4606368103027344	0		-0.2676364440917969	5.94832763671875	0		
-0.04466825103759765	-0.007191711902618408	0		0.5459247436523438	-2.456032470703125	0		-0.9677752685546875	0.3657404479980469	0		-0.4495085144042969	-2.971049560546875	0		1.685544189453125	-0.566161376953125	0		3.093583984375	0.23123980712890624	0		4.5052705078125	0.44850677490234375	0		5.95059130859375	0.47548162841796876	0		-0.2666762390136719	5.948162109375	0		
0.02301540946960449	-4.2852100729942323E-4	0		0.5723186645507813	-2.459633056640625	0		-0.9612598266601563	0.36153582763671877	0		-0.3995628356933594	-3.0009873046875	0		1.6738394775390626	-0.5812005004882812	0		3.080289794921875	0.2391626434326172	0		4.50808154296875	0.46210250854492185	0		5.9563291015625	0.419141357421875	0		-0.2175594482421875	5.96424169921875	0		
-0.05044129943847656	0.0046410770416259765	0		0.5487681274414062	-2.4543974609375	0		-0.9575817260742188	0.37339736938476564	0		-0.4033009338378906	-3.00603369140625	0		1.7137919921875	-0.612044189453125	0		3.094636962890625	0.23067839050292968	0		4.5105859375	0.46275155639648435	0		5.94837109375	0.4586030578613281	0		-0.09867691802978516	5.97320751953125	0		
0.026895774841308593	0.0022890939712524416	0		0.604695556640625	-2.4764267578125	0		-0.89234375	0.36427352905273436	0		-0.41322186279296874	-3.0169580078125	0		1.7016639404296876	-0.641009033203125	0		3.095008544921875	0.23046568298339845	0		4.51707861328125	0.4693901062011719	0		5.9486298828125	0.45805691528320314	0		-0.23144122314453125	5.9532724609375	0		
-0.04982740020751953	0.004464494228363037	0		0.5680269165039062	-2.466919921875	0		-0.8920830688476562	0.3642218322753906	0		-0.29148040771484374	-3.044005859375	0		1.7035213623046874	-0.6641639404296875	0		3.0761865234375	0.22561061096191407	0		4.52447119140625	0.4770697021484375	0		5.93279345703125	0.40981500244140623	0		-0.09864864349365235	5.97505029296875	0		
0.024230274200439453	-7.924259901046753E-4	0		0.6257905883789062	-2.486927001953125	0		-0.9029251098632812	0.3653672180175781	0		-0.3005732116699219	-3.053904296875	0		1.6742528076171874	-0.687776123046875	0		3.0771279296875	0.21347918701171875	0		4.52050048828125	0.4699888305664062	0		5.93062060546875	0.39056552124023436	0		-0.2638581848144531	5.94769287109375	0		
-0.039829582214355466	-0.004777499198913574	0		0.5588126220703125	-2.4838720703125	0		-0.9659150390625	0.36537747192382813	0		-0.27114239501953125	-3.08741455078125	0		1.6947811279296876	-0.7171661376953125	0		3.09489697265625	0.19811781311035156	0		4.517732421875	0.4829473266601563	0		5.93724560546875	0.4195312805175781	0		-0.0953651123046875	5.97092333984375	0		
0.02718655014038086	0.0021206209659576417	0		0.612637939453125	-2.487763427734375	0		-0.8879636840820313	0.36810153198242185	0		-0.4040506286621094	-3.07325244140625	0		1.6772989501953126	-0.7399024658203125	0		3.0819248046875	0.20630471801757813	0		4.51762939453125	0.4829156494140625	0		5.93422509765625	0.4057379455566406	0		-0.09740615081787109	5.9729482421875	0		
-0.05000815200805664	0.004389177799224853	0		0.5813609619140625	-2.491243408203125	0		-0.8981680908203125	0.3692750244140625	0		-0.2826893005371094	-3.10022802734375	0		1.7047982177734375	-0.7573409423828125	0		3.0673134765625	0.18255543518066406	0		4.52129248046875	0.4758735656738281	0		5.92397802734375	0.3906090698242187	0		-0.09764039611816407	5.97296044921875	0		
0.03343661117553711	-0.009947901725769042	0		0.6029329223632812	-2.49856494140625	0		-0.90356787109375	0.36538079833984377	0		-0.29217324829101565	-3.11105078125	0		1.6888712158203125	-0.794045654296875	0		3.083781982421875	0.170337158203125	0		4.51707080078125	0.4830075378417969	0		5.92374169921875	0.39075067138671876	0		-0.23234771728515624	5.9541787109375	0		
-0.0548240966796875	0.001534006953239441	0		0.5984495239257812	-2.503442138671875	0		-0.9040081176757813	0.3654179077148437	0		-0.28886148071289064	-3.129068359375	0		1.7410482177734374	-0.818834716796875	0		3.0841484375	0.1584121551513672	0		4.5205146484375	0.4760518798828125	0		5.92045068359375	0.3720566711425781	0		-0.2649714660644531	5.9477470703125	0		
0.022620479583740236	-6.702349781990051E-4	0		0.5917185668945313	-2.5182666015625	0		-0.9775332641601563	0.36665728759765626	0		-0.29341964721679686	-3.13394140625	0		1.6910836181640625	-0.845938720703125	0		3.07643896484375	0.14764434814453126	0		4.5309765625	0.4760132751464844	0		5.91661279296875	0.3880491333007812	0		-0.23250480651855468	5.95327099609375	0		
-0.05191355514526367	0.004615591049194336	0		0.5911569213867187	-2.518172607421875	0		-0.90009423828125	0.3694532165527344	0		-0.28618212890625	-3.1469921875	0		1.750206298828125	-0.86379736328125	0		3.081517822265625	0.12868988037109375	0		4.5223759765625	0.47731103515625	0		5.91323388671875	0.3746597595214844	0		-0.11504580688476562	5.9634296875	0		
0.024387985229492187	0.0024635670185089113	0		0.6124194946289062	-2.525417724609375	0		-0.9107561645507812	0.3706963500976562	0		-0.3037554931640625	-3.144623046875	0		1.744227783203125	-0.8835787963867188	0		3.095841064453125	0.12860804748535157	0		4.52556396484375	0.46943814086914065	0		5.91047705078125	0.3543670654296875	0		-0.130015625	5.9527548828125	0		
0.020623985290527343	-3.7244400382041934E-4	0		0.6336400756835937	-2.532646484375	0		-0.9114796142578125	0.3707917785644531	0		-0.30069805908203123	-3.16257763671875	0		1.745076171875	-0.911456787109375	0		3.092847412109375	0.11182171630859375	0		4.551494140625	0.44821185302734373	0		5.9099677734375	0.3547793273925781	0		-0.2500019683837891	5.9447978515625	0		
0.02973576545715332	-0.009404485702514648	0		0.6158065795898438	-2.541228759765625	0		-0.912228271484375	0.37090167236328125	0		-0.29766729736328124	-3.180517822265625	0		1.7359495849609374	-0.9361602783203125	0		3.078717041015625	0.08822627258300782	0		4.53285986328125	0.4557228088378906	0		5.90526513671875	0.37094509887695315	0		-0.298148681640625	5.9276845703125	0		
0.019129684448242187	-1.0209699720144272E-4	0		0.6390170288085938	-2.546463623046875	0		-0.9129883422851562	0.37102581787109373	0		-0.2895723571777344	-3.19352587890625	0		1.7418895263671874	-0.95609716796875	0		3.122810546875	0.07869839477539063	0		4.5518525390625	0.44062741088867186	0		5.91253857421875	0.36588458251953127	0		-0.2346168670654297	5.95178173828125	0		
0.03532102584838867	-0.003222012996673584	0		0.59932373046875	-2.54466845703125	0		-0.9096885375976562	0.37509918212890625	0		-0.29027587890625	-3.193376708984375	0		1.780884033203125	-0.9725577392578125	0		3.102972900390625	0.0742134017944336	0		4.55797314453125	0.4337468566894531	0		5.8984599609375	0.36858731079101564	0		-0.13344110107421875	5.953283203125	0		
0.02065771484375	0.0031714398860931397	0		0.63757958984375	-2.54612109375	0		-0.9253736572265625	0.3804943542480469	0		-0.3001490478515625	-3.20306689453125	0		1.7727342529296874	-0.997246337890625	0		3.0966455078125	0.03951412582397461	0		4.557978515625	0.41997039794921875	0		5.89544384765625	0.3189554138183594	0		-0.1201190414428711	5.96422119140625	0		
0.019885622024536132	0.00335385799407959	0		0.6068135375976562	-2.547446044921875	0		-0.9352787475585937	0.3728102416992187	0		-0.30699002075195314	-3.209791259765625	0		1.812486328125	-1.02769775390625	0		3.111531982421875	0.018482673645019532	0		4.56595751953125	0.40507080078125	0		5.891431640625	0.33511618041992186	0		-0.14932281494140626	5.9428564453125	0		
0.02589718246459961	-0.008559853553771972	0		0.637784912109375	-2.563756103515625	0		-0.94112451171875	0.3700784912109375	0		-0.3010082702636719	-3.2257080078125	0		1.807381591796875	-1.047413818359375	0		3.162408447265625	-0.0021220629215240477	0		4.573916015625	0.39017428588867187	0		5.88740380859375	0.3512754516601562	0		-0.28825979614257813	5.93927734375	0		
-0.06276259231567383	0.0030703821182250977	0		0.5949279174804688	-2.56586083984375	0		-0.9419595947265625	0.37028515625	0		-0.3038496398925781	-3.22746435546875	0		1.80937890625	-1.0582344970703126	0		3.148513427734375	-0.0056761870384216305	0		4.5730810546875	0.3904202270507813	0		5.886810546875	0.35171731567382813	0		-0.25407460021972655	5.94292431640625	0		
0.01737165641784668	0.003995357990264892	0		0.6479921875	-2.56949853515625	0		-0.9378003540039063	0.3734319763183594	0		-0.30472817993164064	-3.227234619140625	0		1.8141070556640626	-1.0820926513671876	0		3.156125244140625	-0.036578052520751955	0		4.5949638671875	0.3762945556640625	0		5.8790458984375	0.35242291259765623	0		-0.13778424072265624	5.954267578125	0		
-0.05070407485961914	-0.0026755878925323485	0		0.6170030517578124	-2.570767822265625	0		-0.9438027954101562	0.37076333618164065	0		-0.23607000732421876	-3.251110595703125	0		1.8467742919921875	-1.1053927001953125	0		3.1768447265625	-0.056687931060791015	0		4.598669921875	0.3554557800292969	0		5.8783642578125	0.35283187866210936	0		-0.15290299987792969	5.9437431640625	0		
0.012336421012878417	0.001559762954711914	0		0.6388362426757812	-2.577874755859375	0		-0.944831787109375	0.3710377197265625	0		-0.3169383544921875	-3.23855322265625	0		1.8383482666015625	-1.129023193359375	0		3.15038037109375	-0.08303781127929688	0		4.5984150390625	0.3416744384765625	0		5.8795146484375	0.3150794677734375	0		-0.28722772216796877	5.92415869140625	0		
